<?xml version="1.0" encoding="iso-8859-1"?>
<!-- Generator: Adobe Illustrator 16.0.0, SVG Export Plug-In . SVG Version: 6.00 Build 0)  -->
<!DOCTYPE svg PUBLIC "-//W3C//DTD SVG 1.1//EN" "http://www.w3.org/Graphics/SVG/1.1/DTD/svg11.dtd">
<svg version="1.1" id="Capa_1" xmlns="http://www.w3.org/2000/svg" xmlns:xlink="http://www.w3.org/1999/xlink" x="0px" y="0px"
	 width="512px" height="512px" viewBox="0 0 512 512" style="enable-background:new 0 0 512 512;" xml:space="preserve">
<g>
	<path d="M336,157.938l-80-60.125l98.344,0.75L384.031,0l29.625,98.563L512,97.75l-80,60.156L463.125,256L384,194.562L304.875,256
		L336,157.938z M480,256h32v256H0V128h256v32H56.562L256,330.938L343.438,256h49.156l-49.906,42.781L480,455.719V256z M32,455.688
		L169.312,298.75L32,181.063V455.688z M458.75,480L318.406,319.594L256,373.062l-62.375-53.469L53.25,480H458.75z"/>
</g>
<g>
</g>
<g>
</g>
<g>
</g>
<g>
</g>
<g>
</g>
<g>
</g>
<g>
</g>
<g>
</g>
<g>
</g>
<g>
</g>
<g>
</g>
<g>
</g>
<g>
</g>
<g>
</g>
<g>
</g>
</svg>
